HIERARCHY
ROOT hips_dup
{
	OFFSET 740.547119 85.626953 37.583111
	CHANNELS 6 Xposition Yposition Zposition Zrotation Yrotation Xrotation
	JOINT l_hip_dup
	{
		OFFSET 0.100000 -0.000000 0.000000
		CHANNELS 3 Zrotation Yrotation Xrotation
		JOINT l_thigh_dup
		{
			OFFSET 12.325401 0.000000 -0.000000
			CHANNELS 3 Zrotation Yrotation Xrotation
			JOINT l_knee_dup
			{
				OFFSET 2.775703 -52.963533 0.000001
				CHANNELS 3 Zrotation Yrotation Xrotation
				JOINT l_foot_dup
				{
					OFFSET 2.443169 -46.618436 0.000001
					CHANNELS 3 Zrotation Yrotation Xrotation
					JOINT l_toes_dup
					{
						OFFSET 0.311175 -5.937582 12.750666
						CHANNELS 3 Zrotation Yrotation Xrotation
						End l_toes_End_dup
						{
							OFFSET 0.044636 -0.851711 9.748467
						}
					}
				}
			}
		}
	}
	JOINT r_hip_dup
	{
		OFFSET 0.100000 -0.000000 0.000000
		CHANNELS 3 Zrotation Yrotation Xrotation
		JOINT r_thigh_dup
		{
			OFFSET -12.325401 0.000000 -0.000000
			CHANNELS 3 Zrotation Yrotation Xrotation
			JOINT r_knee_dup
			{
				OFFSET -2.728099 -52.055206 -0.000001
				CHANNELS 3 Zrotation Yrotation Xrotation
				JOINT r_foot_dup
				{
					OFFSET -2.488649 -47.486215 -0.000001
					CHANNELS 3 Zrotation Yrotation Xrotation
					JOINT r_toes_dup
					{
						OFFSET -0.340057 -6.488687 13.934137
						CHANNELS 3 Zrotation Yrotation Xrotation
						End r_toes_End_dup
						{
							OFFSET -0.046094 -0.879518 10.066733
						}
					}
				}
			}
		}
	}
	JOINT spine1_dup
	{
		OFFSET 0.100000 0.000000 -0.000000
		CHANNELS 3 Zrotation Yrotation Xrotation
		JOINT spine2_dup
		{
			OFFSET -0.000000 14.215645 -0.000000
			CHANNELS 3 Zrotation Yrotation Xrotation
			JOINT spine3_dup
			{
				OFFSET -0.435970 23.745087 -0.905567
				CHANNELS 3 Zrotation Yrotation Xrotation
				JOINT neck_dup
				{
					OFFSET -0.218957 18.933090 -0.472811
					CHANNELS 3 Zrotation Yrotation Xrotation
					JOINT head_dup
					{
						OFFSET 0.331457 12.008331 0.226232
						CHANNELS 3 Zrotation Yrotation Xrotation
						End head_End_dup
						{
							OFFSET 0.538358 11.858373 1.269734
						}
					}
				}
				JOINT l_clavicle_dup
				{
					OFFSET -0.218957 18.933090 -0.472811
					CHANNELS 3 Zrotation Yrotation Xrotation
					JOINT l_shoulder_dup
					{
						OFFSET 15.116303 0.000000 0.000000
						CHANNELS 3 Zrotation Yrotation Xrotation
						JOINT l_elbow_dup
						{
							OFFSET 31.712253 -0.000737 2.830977
							CHANNELS 3 Zrotation Yrotation Xrotation
							JOINT l_hand_dup
							{
								OFFSET 34.877886 -0.000002 6.159167
								CHANNELS 3 Zrotation Yrotation Xrotation
								End l_hand_End_dup
								{
									OFFSET 12.171075 0.250001 2.146094
								}
							}
						}
					}
				}
				JOINT r_clavicle_dup
				{
					OFFSET -0.218957 18.933090 -0.472811
					CHANNELS 3 Zrotation Yrotation Xrotation
					JOINT r_shoulder_dup
					{
						OFFSET -14.846962 0.000000 0.000000
						CHANNELS 3 Zrotation Yrotation Xrotation
						JOINT r_elbow_dup
						{
							OFFSET -32.950214 0.000983 2.813988
							CHANNELS 3 Zrotation Yrotation Xrotation
							JOINT r_hand_dup
							{
								OFFSET -32.405870 -0.000004 5.705434
								CHANNELS 3 Zrotation Yrotation Xrotation
								End r_hand_End_dup
								{
									OFFSET -12.660152 0.250000 2.232319
								}
							}
						}
					}
				}
			}
		}
	}
}
MOTION
Frames: 21
Frame Time: 0.041667
682.912	90.113	39.352	47.410	-74.169	-15.842	0.000	-0.000	0.000	-4.135	-9.608	-35.512	1.630	2.571	60.920	0.697	2.623	-41.998	0.050	-0.656	-12.580	0.000	-0.000	0.000	8.608	-17.742	-59.526	-4.577	-2.454	119.795	-0.207	-9.563	-22.016	-0.002	0.042	-0.795	0.000	0.000	0.000	-12.454	-9.022	29.116	-0.751	-6.294	-6.486	2.371	1.030	-23.361	10.098	-0.094	-10.228	-1.806	-3.994	0.129	-43.006	-55.963	-8.255	-135.916	-76.960	73.503	-24.240	-25.248	14.957	10.933	-1.283	-0.267	56.039	-31.906	19.654	12.191	51.424	-39.973	12.051	13.541	4.935
674.909	89.282	38.883	38.971	-71.349	-6.233	0.000	-0.000	0.000	-1.546	-9.622	-28.660	1.250	2.339	52.408	0.812	-0.400	-45.136	0.022	-0.476	-9.095	0.000	-0.000	0.000	5.862	-12.958	-74.082	-4.945	-2.187	128.489	-0.282	-16.035	-28.360	0.000	-0.004	0.084	0.000	0.000	0.000	-9.267	-15.605	27.515	1.167	-8.731	-8.252	0.646	3.301	-22.314	9.070	2.541	-9.803	4.363	-3.696	-0.289	-34.681	-56.066	-24.444	-151.382	-71.603	93.479	-27.136	-35.752	20.740	10.892	-1.261	-0.262	48.451	-50.514	14.238	11.958	50.216	-40.791	17.032	13.550	7.077
664.647	89.057	39.015	30.006	-71.725	2.401	0.000	-0.000	0.000	1.935	-10.591	-18.588	0.829	1.973	41.744	0.660	1.166	-40.786	0.059	-0.701	-13.448	0.000	-0.000	0.000	2.878	-10.842	-83.249	-4.855	-2.260	126.274	-0.376	-14.975	-31.185	-0.000	0.013	-0.244	0.000	0.000	0.000	-3.407	-19.832	24.344	1.834	-9.956	-8.555	0.605	5.969	-22.749	6.697	4.984	-7.271	5.408	-3.559	-0.346	-34.089	-46.689	-25.690	-148.315	-74.598	96.973	-23.904	-42.025	19.750	8.882	0.951	0.133	39.285	-65.828	14.207	13.556	54.769	-40.297	24.770	12.448	10.168
646.389	91.071	40.128	15.445	-76.431	14.911	0.000	-0.000	0.000	2.991	-8.311	-6.283	0.614	1.721	35.427	-0.001	11.810	-14.410	0.260	-1.326	-25.992	0.000	-0.000	0.000	5.092	-11.073	-81.740	-3.978	-2.738	107.119	-0.467	-7.692	-31.695	-0.002	0.051	-0.971	0.000	0.000	0.000	4.927	-20.658	21.441	0.217	-9.744	-5.651	1.808	8.542	-22.325	3.900	7.196	-4.859	-0.127	-4.188	0.010	-43.288	-28.144	-6.944	-38.917	-78.210	-8.278	-7.370	-40.403	5.794	7.103	6.158	0.753	34.321	-74.409	23.598	26.348	69.952	-36.938	30.374	5.967	9.315
627.436	94.247	41.086	-8.921	-84.078	37.475	0.000	-0.000	0.000	-1.364	-1.400	-9.214	1.424	2.455	56.397	-0.056	13.300	5.233	0.005	0.100	1.912	0.000	-0.000	0.000	11.412	-12.725	-66.289	-2.453	-2.851	77.586	-0.383	-7.983	-28.769	0.001	-0.028	0.536	0.000	0.000	0.000	7.316	-17.864	23.220	-1.182	-8.284	-2.363	-1.452	9.453	-20.242	3.575	8.906	-6.922	-6.196	-5.858	0.646	-54.211	-10.300	4.983	-8.563	-43.854	-31.366	-2.629	-12.436	1.024	10.791	5.006	0.934	44.450	-52.342	20.392	111.543	80.845	52.769	21.115	0.206	3.944
615.589	95.152	41.073	-101.958	-85.210	129.986	0.000	-0.000	0.000	-4.052	3.688	-20.206	2.661	2.882	81.602	0.017	3.094	5.060	0.004	0.088	1.682	0.000	-0.000	0.000	13.000	-11.274	-52.026	-1.723	-2.617	62.911	-0.569	-3.654	-34.345	-0.028	0.321	-6.148	0.000	0.000	0.000	6.703	-14.142	25.352	-1.374	-6.571	-2.275	-3.772	10.375	-19.656	1.955	10.188	-8.729	-10.051	-6.101	1.097	-58.873	5.786	8.495	-3.737	-25.107	-17.799	-12.767	6.498	0.829	13.340	1.120	0.242	48.144	-23.954	22.147	149.027	73.805	93.837	20.236	-4.412	2.052
599.227	94.213	40.624	-139.194	-74.038	167.804	0.000	-0.000	0.000	-6.760	6.245	-44.914	4.432	2.538	116.595	-0.076	13.534	-7.492	0.019	0.249	4.773	0.000	-0.000	0.000	11.525	-5.673	-35.104	-1.152	-2.266	50.082	-0.899	1.219	-43.651	-0.014	0.205	-3.921	0.000	0.000	0.000	5.164	-3.901	25.903	-1.663	-1.834	-3.752	-4.552	10.433	-19.452	-0.793	10.138	-10.234	-13.196	-6.219	1.478	-63.922	39.420	5.928	-4.590	-25.253	-22.080	-19.329	-4.641	5.195	11.842	-3.943	-0.847	66.180	17.086	16.238	160.189	64.509	104.340	21.678	-1.773	3.272
587.825	93.293	40.210	-147.109	-70.314	175.814	0.000	-0.000	0.000	-3.981	0.929	-63.085	4.916	2.211	127.765	-0.024	14.016	-14.857	0.034	0.362	6.942	0.000	-0.000	0.000	7.484	-4.015	-25.156	-0.838	-1.983	42.006	-0.945	2.853	-44.873	-0.014	0.204	-3.895	0.000	0.000	0.000	2.842	3.896	24.706	-1.662	1.695	-3.588	-4.562	7.542	-19.757	0.490	7.411	-8.959	-11.336	-8.014	1.621	-66.064	60.306	0.625	-9.787	-39.779	-41.410	-24.891	-10.297	9.390	7.768	-5.457	-0.757	73.738	33.839	5.871	162.585	57.740	97.134	23.834	14.284	10.480
567.880	94.151	38.865	15.105	254.404	11.551	0.000	-0.000	0.000	1.814	-6.805	-81.889	4.502	2.499	118.135	0.117	10.037	-21.407	0.021	0.271	5.186	0.000	-0.000	0.000	-0.352	-6.529	-4.528	-0.265	-1.137	22.416	-0.461	-3.662	-30.712	-0.093	0.646	-12.475	0.000	0.000	0.000	-3.376	10.868	24.892	-0.396	4.383	-1.818	-5.004	0.502	-20.658	5.379	0.858	-5.520	-6.359	-12.296	1.370	-64.282	74.444	-2.455	-20.999	-63.639	-45.820	-25.071	-10.207	9.427	2.670	-3.825	-0.183	54.210	31.566	-15.765	163.154	55.045	91.331	35.292	1.914	8.445
553.225	96.506	37.596	175.912	-79.701	-150.955	0.000	-0.000	0.000	-1.321	-8.325	-81.942	3.638	2.833	100.373	0.181	8.785	-24.239	0.018	0.240	4.586	0.000	-0.000	0.000	-2.065	-10.832	3.217	-0.251	-1.107	21.778	0.134	-18.232	-6.533	-0.184	0.939	-18.328	0.000	0.000	0.000	-6.482	11.582	27.210	0.187	4.159	-0.132	-3.929	-2.273	-21.344	6.974	-2.038	-5.091	-6.491	-12.798	1.455	-64.268	67.727	-6.514	-36.700	-74.580	-28.931	-24.289	-11.460	9.624	3.811	-0.996	-0.073	47.627	15.627	-11.646	159.692	67.707	111.549	31.944	-0.828	5.730
530.771	99.978	35.719	113.652	-86.026	-90.679	0.000	-0.000	0.000	-8.181	-6.322	-67.561	2.289	2.816	74.373	0.127	-0.206	-18.758	0.003	0.076	1.445	0.000	-0.000	0.000	1.916	-15.755	-1.670	-1.225	-2.321	51.826	0.085	-13.804	4.719	0.001	-0.050	0.956	0.000	0.000	0.000	-7.073	8.804	31.160	-0.949	2.409	1.950	2.705	-1.989	-20.603	5.335	-3.097	-8.921	-11.659	-8.804	1.829	-59.885	37.193	-4.899	-101.389	-80.240	30.448	-23.383	-15.533	10.832	8.120	3.767	0.523	53.016	-4.329	0.939	28.820	75.908	-14.537	22.101	-0.236	3.968
516.199	100.374	34.858	45.451	-82.893	-23.065	0.000	-0.000	0.000	-10.050	-5.953	-55.895	1.808	2.655	64.690	0.091	3.400	-16.766	0.017	0.232	4.437	0.000	-0.000	0.000	6.295	-17.283	-12.263	-2.492	-2.858	78.334	0.002	-2.048	3.760	-0.005	0.097	-1.856	0.000	0.000	0.000	-6.709	4.738	32.166	-1.741	0.537	1.738	6.645	-1.809	-19.060	5.394	-3.556	-11.108	-14.592	-5.114	1.355	-58.505	11.257	3.774	-132.534	-76.534	55.423	-28.155	-12.563	11.943	10.428	4.633	0.833	57.080	-13.179	10.897	9.525	48.686	-31.845	27.900	-8.059	0.990
495.579	97.770	34.129	32.162	-72.006	-8.473	0.000	-0.000	0.000	-10.724	-8.830	-38.824	1.465	2.480	57.330	0.487	-5.349	-35.235	0.015	0.216	4.140	0.000	-0.000	0.000	10.075	-18.075	-36.652	-4.340	-2.586	114.619	-0.027	-7.607	-9.424	-0.002	0.042	-0.807	0.000	0.000	0.000	-7.618	-4.739	29.932	-1.264	-3.767	-0.962	6.649	-2.184	-17.225	7.956	-3.558	-12.529	-13.137	-0.806	0.212	-63.891	-25.552	20.249	-153.736	-67.054	76.069	-30.149	-12.566	12.952	12.486	2.793	0.596	51.541	-34.652	38.672	6.133	28.427	-29.805	44.740	-16.684	-6.712
481.663	95.527	33.785	30.089	-67.563	-4.977	0.000	-0.000	0.000	-9.105	-8.921	-30.151	1.314	2.384	53.899	0.675	-9.253	-41.715	0.023	0.282	5.401	0.000	-0.000	0.000	7.781	-13.600	-54.933	-4.913	-2.214	127.693	-0.158	-10.470	-20.019	0.001	-0.047	0.905	0.000	0.000	0.000	-7.464	-11.440	26.664	-0.600	-6.702	-3.001	4.867	-0.462	-17.167	7.896	-1.565	-12.246	-7.875	0.509	-0.057	-63.747	-42.656	17.886	-160.205	-60.161	88.981	-36.247	-21.850	21.978	11.455	3.072	0.602	-143.661	-124.095	-128.974	7.433	38.370	-31.113	42.619	-5.644	3.988
457.731	94.503	33.811	21.134	-70.174	4.261	0.000	-0.000	0.000	-2.613	-9.579	-11.837	0.744	1.881	39.357	0.458	-5.635	-34.241	0.039	-0.594	-11.379	0.000	-0.000	0.000	-0.153	-5.723	-75.135	-4.595	-2.443	120.194	-0.386	-6.608	-28.506	0.002	-0.092	1.761	0.000	0.000	0.000	-2.833	-17.015	21.555	-0.889	-8.763	-3.455	4.788	4.034	-18.314	4.072	2.522	-8.437	-1.028	-0.367	0.008	-46.827	-43.043	-6.284	-158.540	-64.931	98.648	-33.915	-30.438	24.419	6.832	7.230	0.852	-172.958	-101.963	-122.358	15.074	55.379	-46.376	42.816	-5.727	3.937
440.002	95.881	34.430	8.514	-75.637	16.053	0.000	-0.000	0.000	-1.131	-8.262	-1.978	0.590	1.690	34.678	-0.002	6.370	-8.533	0.222	-1.238	-24.177	0.000	-0.000	0.000	1.457	-3.689	-78.300	-3.661	-2.828	100.825	-0.474	-4.347	-31.274	0.001	-0.063	1.211	0.000	0.000	0.000	1.510	-17.201	19.885	-1.920	-8.503	-2.044	5.408	5.903	-17.773	2.015	4.279	-6.124	-2.234	-1.773	0.073	-41.303	-29.678	-6.007	-130.120	-78.843	73.528	-19.705	-32.996	14.047	6.149	8.814	0.935	-161.025	-97.547	-142.763	25.443	68.347	-43.060	38.446	-7.163	2.209
412.732	98.575	35.607	-30.623	-82.109	52.774	0.000	-0.000	0.000	-3.807	-2.541	-0.108	1.443	2.467	56.838	0.045	5.134	9.168	0.000	0.006	0.122	0.000	-0.000	0.000	11.187	-5.186	-65.811	-1.864	-2.679	65.852	-0.333	4.026	-25.527	-0.002	0.053	-1.013	0.000	0.000	0.000	5.387	-15.897	21.722	-2.499	-7.596	0.411	2.541	7.282	-15.811	2.530	6.272	-8.015	-7.631	-5.208	0.710	-46.427	-7.250	2.737	-22.510	-65.379	-44.451	-16.495	-37.590	12.597	10.954	5.286	1.002	46.413	-58.110	10.443	93.592	80.611	22.634	26.024	-10.023	-0.061
395.074	98.971	35.961	-80.830	-82.246	100.945	0.000	-0.000	0.000	-5.570	3.114	-8.353	2.831	2.897	84.869	0.071	-2.160	11.016	-0.001	-0.019	-0.366	0.000	-0.000	0.000	15.589	-6.164	-52.645	-1.131	-2.249	49.572	-0.255	0.756	-21.950	-0.002	0.055	-1.044	0.000	0.000	0.000	6.386	-14.168	24.477	-2.137	-6.720	0.826	-0.721	8.479	-15.409	2.427	7.934	-10.375	-10.536	-6.263	1.181	-52.440	7.175	8.702	-13.224	-48.190	-50.100	-16.013	-36.219	11.955	14.119	0.974	0.220	50.157	-30.414	11.800	133.822	77.224	66.712	26.683	-11.146	-0.635
378.254	98.000	35.946	-115.735	-77.292	134.613	0.000	-0.000	0.000	-7.675	8.049	-21.419	4.224	2.641	112.166	-0.033	9.257	1.716	0.014	0.206	3.939	0.000	-0.000	0.000	17.830	-5.383	-42.651	-1.190	-2.295	50.994	-0.459	1.905	-30.241	-0.000	-0.210	4.004	0.000	0.000	0.000	7.150	-9.951	26.253	-1.908	-4.659	0.165	-2.493	9.489	-15.771	0.729	8.997	-11.874	-12.500	-5.570	1.255	-56.248	24.449	17.119	-11.493	-42.416	-48.793	-22.364	-35.080	16.650	14.542	-2.870	-0.770	60.590	-1.237	12.770	148.404	72.582	84.105	27.560	-9.476	0.225
353.515	96.039	35.997	-135.865	-70.552	155.575	0.000	-0.000	0.000	-7.915	3.691	-51.072	5.196	1.946	135.133	-0.029	10.719	-10.023	0.038	0.389	7.464	0.000	-0.000	0.000	13.122	-2.847	-26.335	-1.040	-2.174	47.310	-0.752	7.469	-39.882	0.001	-0.059	1.131	0.000	0.000	0.000	6.667	0.772	24.016	-1.549	0.503	-1.043	-2.882	7.475	-16.110	0.377	6.958	-12.299	-11.754	-6.156	1.299	-58.700	55.252	18.442	-15.030	-55.716	-43.486	-39.222	-33.845	30.757	9.791	-5.805	-1.017	77.069	28.401	9.957	159.719	61.285	86.636	28.949	1.858	6.564
326.347	96.513	35.788	-152.139	-75.164	172.493	0.000	-0.000	0.000	0.839	-6.836	-76.306	4.761	2.331	124.017	0.061	5.072	-14.977	0.026	0.310	5.930	0.000	-0.000	0.000	2.679	-4.462	-4.124	-0.392	-1.387	27.756	-0.468	3.625	-30.606	-0.053	0.468	-8.987	0.000	0.000	0.000	-0.024	9.223	19.806	-0.349	4.174	-1.013	-2.995	1.078	-18.696	4.550	1.006	-8.312	-6.549	-10.751	1.238	126.760	105.862	-160.453	-36.130	-75.917	-19.171	-32.836	-32.647	24.440	3.801	-3.959	-0.269	60.900	31.098	-6.635	164.404	50.682	85.700	43.920	-1.835	7.900
